<?xml version="1.0" encoding="UTF-8"?>
<svg id="full_logo" data-name="full logo" xmlns="http://www.w3.org/2000/svg" viewBox="0 0 341.09 86.13">
  <defs>
    <style>
      .cls-1 {
        fill: #ae0721;
      }

      .cls-1, .cls-2, .cls-3, .cls-4, .cls-5, .cls-6 {
        stroke-width: 0px;
      }

      .cls-2 {
        fill: silver;
      }

      .cls-3 {
        fill: #be1e2d;
      }

      .cls-4 {
        fill: #00a1ed;
      }

      .cls-5 {
        fill: #edeeef;
      }

      .cls-6 {
        fill: #00adee;
      }
    </style>
  </defs>
  <g>
    <polygon class="cls-2" points="33.38 57.26 33.42 57.15 49.53 57.15 57.59 43.19 41.47 43.19 33.38 57.26"/>
    <path class="cls-4" d="M34.93,56.29h14.11l7.06-12.25h-14.14l-7.04,12.25ZM50.03,58.01h-16.61v-.66l-.84-.4.24-.66h.12l8.03-13.97h17.11l.49.86-.24.43-8.3,14.39Z"/>
    <polygon class="cls-5" points="33.34 29 33.34 29 41.47 43.19 57.52 43.14 57.58 43.02 49.52 29 33.34 29"/>
    <path class="cls-6" d="M34.82,29.86l7.14,12.47,14.2-.04-7.14-12.42h-14.2ZM40.97,44.05l-9.69-16.91,2.24,1h16.49l8.56,14.89-.56.97-17.04.05Z"/>
    <polygon class="cls-1" points="33.34 28.99 25.25 43.06 33.38 57.26 41.47 43.18 33.34 28.99"/>
    <path class="cls-6" d="M26.24,43.06l7.14,12.47,7.1-12.35-7.14-12.47-7.1,12.35ZM33.33,59.08l-.71-1.43-8.35-14.58,9.08-15.79,9.12,15.92-9.13,15.89Z"/>
    <path class="cls-6" d="M32.83,0l-8.08,14.06H8.58L0,28.99l8.12,14.13L.07,57.13l8.58,14.93h16.17l8.09,14.07h17.16l8.08-14.07h16.14l8.58-14.93-8.08-14.05v-.02s0-.02,0-.02l8.07-14.04-8.58-14.93h-16.2L50,0h-17.16ZM33.82,1.72h15.18l7.59,13.21-7.08,12.32-7.58-13.19h-15.21l7.1-12.34ZM58.12,15.79h15.18l7.59,13.21-7.08,12.32-7.58-13.19h-15.2l7.09-12.34ZM26.74,15.79h14.2l7.1,12.35h-14.2l-7.1-12.35ZM1.98,28.99l7.59-13.21h14.21l-7.59,13.21,7.59,13.21h-14.21L1.98,28.99ZM18.17,28.99l7.08-12.32,7.09,12.33-7.08,12.32-7.09-12.33ZM51.01,29.85h14.23l7.1,12.36h-14.23l-7.1-12.36ZM26.28,43l7.55-13.13h15.18l7.59,13.21-7.06,12.27-7.31-12.71h-.02s-.01,0-.01,0l-1.49.86,7.35,12.78h-14.17l-7.62-13.27ZM58.12,43.93h14.21l-7.09,12.34h-14.21l7.09-12.34ZM2.05,57.13l7.59-13.2h14.19l-7.59,13.2,7.59,13.21h-14.19l-7.59-13.21ZM51.06,57.98h15.17l7.58-13.18,7.09,12.33-7.6,13.21h-15.14l-7.1-12.36ZM18.23,57.13l7.06-12.27,7.09,12.34-7.06,12.27-7.09-12.34ZM33.9,58h14.19l-7.09,12.34h-14.19l7.09-12.34ZM26.8,72.06h15.19l7.57-13.16,7.09,12.33-7.57,13.18h-15.19l-7.09-12.34Z"/>
  </g>
  <g>
    <path class="cls-2" d="M111.62,18.07c-1.5-1.54-3.51-2.02-5.59-2.02h-6.29v22.61h6.29c2.08,0,4.09-.48,5.59-2.02,2.08-2.13,1.94-6.76,1.94-9.65s.15-6.79-1.94-8.92M113.01,38.04c-1.54,1.54-3.8,2.39-6.51,2.39h-8.74V14.29h8.73c2.7,0,4.97.84,6.51,2.39,2.63,2.64,2.52,6.79,2.52,10.32s.11,8.41-2.52,11.05"/>
    <polygon class="cls-3" points="142.43 40.43 142.43 18.88 134.53 36.76 132.56 36.76 124.52 18.88 124.52 40.43 122.55 40.43 122.55 14.29 124.52 14.29 133.58 34.44 142.43 14.29 144.4 14.29 144.4 40.43 142.43 40.43"/>
    <path class="cls-3" d="M158.95,40.65c-3.87,0-6.29-1.06-8.66-3.45l1.39-1.4c2.34,2.35,4.24,3.08,7.38,3.08,4.09,0,6.69-1.98,6.69-5.4.08-1.38-.44-2.72-1.43-3.67-.95-.81-1.64-1.06-3.76-1.4l-3.03-.48c-1.69-.18-3.3-.84-4.64-1.91-1.38-1.19-2.14-2.97-2.05-4.81,0-4.37,3.11-7.16,8.08-7.16,2.77-.11,5.47.9,7.49,2.83l-1.28,1.29c-1.69-1.66-3.97-2.54-6.32-2.42-3.76,0-6.03,2.09-6.03,5.4,0,1.51.44,2.64,1.35,3.41,1.13.86,2.47,1.42,3.88,1.62l2.81.44c2.45.37,3.54.81,4.64,1.73,1.48,1.25,2.31,3.12,2.26,5.07,0,4.41-3.36,7.23-8.77,7.23"/>
    <polygon class="cls-3" points="173.9 40.43 173.9 14.29 189.69 14.29 189.69 16.05 175.87 16.05 175.87 26.37 187.64 26.37 187.64 28.13 175.87 28.13 175.87 38.66 189.69 38.66 189.69 40.43 173.9 40.43"/>
    <path class="cls-5" d="M201.66,15.1c-.29-.28-.68-.43-1.08-.41h-1.2v4.5h1.2c.4.02.79-.12,1.08-.41.38-.4.36-1.23.36-1.91s.02-1.38-.36-1.78M202.07,19.21c-.38.35-.88.54-1.39.52h-1.88v-5.56h1.88c.51-.02,1.01.16,1.39.52.57.58.54,1.43.54,2.2s.03,1.75-.54,2.33"/>
    <polygon class="cls-5" points="204.07 19.73 204.07 14.17 207.48 14.17 207.48 14.7 204.65 14.7 204.65 16.66 207.06 16.66 207.06 17.19 204.65 17.19 204.65 19.19 207.48 19.19 207.48 19.73 204.07 19.73"/>
    <path class="cls-5" d="M210.77,14.7h-1.41v2.21h1.41c.31.04.61-.06.84-.28.23-.21.34-.52.33-.83.02-.31-.1-.61-.33-.83-.23-.21-.53-.31-.84-.27M210.82,17.44h-1.46v2.29h-.59v-5.56h2.05c.45-.04.89.12,1.21.43.32.31.5.75.49,1.2.02.45-.16.89-.48,1.21-.32.31-.77.47-1.21.43"/>
    <path class="cls-5" d="M214.91,15.02l-1.03,2.94h2.05l-1.02-2.94ZM216.54,19.73l-.44-1.26h-2.4l-.44,1.26h-.63l2.02-5.56h.49l2.02,5.56h-.63Z"/>
    <path class="cls-5" d="M220.18,14.7h-1.47v2.04h1.47c.28.04.57-.05.78-.25.21-.2.33-.48.31-.77.01-.29-.1-.57-.31-.77-.21-.2-.5-.29-.78-.25M221.29,19.73l-1.25-2.47h-1.32v2.47h-.59v-5.56h2.11c.43-.04.85.1,1.16.4.31.3.48.71.47,1.15.03.73-.48,1.37-1.2,1.49l1.3,2.52h-.69Z"/>
    <polygon class="cls-5" points="224.88 14.7 224.88 19.73 224.3 19.73 224.3 14.7 222.71 14.7 222.71 14.16 226.47 14.16 226.47 14.7 224.88 14.7"/>
    <polygon class="cls-5" points="231.7 19.73 231.7 15.5 230.2 18.85 229.69 18.85 228.16 15.5 228.16 19.73 227.58 19.73 227.58 14.17 228.16 14.17 229.96 18.11 231.7 14.17 232.29 14.17 232.29 19.73 231.7 19.73"/>
    <polygon class="cls-5" points="233.96 19.73 233.96 14.17 237.37 14.17 237.37 14.7 234.54 14.7 234.54 16.66 236.95 16.66 236.95 17.19 234.54 17.19 234.54 19.19 237.37 19.19 237.37 19.73 233.96 19.73"/>
    <polygon class="cls-5" points="242.17 19.73 239.25 15.27 239.25 19.73 238.67 19.73 238.67 14.17 239.22 14.17 242.14 18.61 242.14 14.17 242.73 14.17 242.73 19.73 242.17 19.73"/>
    <polygon class="cls-5" points="246.01 14.7 246.01 19.73 245.42 19.73 245.42 14.7 243.83 14.7 243.83 14.16 247.6 14.16 247.6 14.7 246.01 14.7"/>
    <path class="cls-5" d="M253.37,15.05c-.52-.53-1.37-.53-1.9,0-.35.36-.39.73-.39,1.9s.04,1.54.39,1.9c.25.26.59.4.95.4s.7-.14.95-.4c.35-.36.39-.73.39-1.9s-.04-1.54-.39-1.9M253.82,19.19c-.78.77-2.03.77-2.81,0-.52-.52-.52-1.07-.52-2.25s0-1.73.52-2.25c.78-.77,2.03-.77,2.81,0,.52.52.52,1.07.52,2.25s0,1.73-.52,2.25"/>
    <polygon class="cls-5" points="256.39 14.7 256.39 16.74 258.8 16.74 258.8 17.27 256.39 17.27 256.39 19.73 255.8 19.73 255.8 14.16 259.21 14.16 259.21 14.7 256.39 14.7"/>
    <polygon class="cls-5" points="202.92 30 202.92 25.78 201.41 29.13 200.91 29.13 199.38 25.78 199.38 30 198.79 30 198.79 24.44 199.38 24.44 201.17 28.38 202.91 24.44 203.5 24.44 203.5 30 202.92 30"/>
    <path class="cls-5" d="M206.75,25.29l-1.03,2.94h2.05l-1.02-2.94ZM208.37,30l-.44-1.26h-2.4l-.44,1.26h-.63l2.02-5.56h.49l2.01,5.56h-.62Z"/>
    <polygon class="cls-5" points="211.12 24.97 211.12 30 210.53 30 210.53 24.97 208.94 24.97 208.94 24.44 212.7 24.44 212.7 24.97 211.12 24.97"/>
    <polygon class="cls-5" points="213.81 30 213.81 24.44 217.22 24.44 217.22 24.97 214.4 24.97 214.4 26.93 216.81 26.93 216.81 27.46 214.4 27.46 214.4 29.47 217.22 29.47 217.22 30 213.81 30"/>
    <path class="cls-5" d="M220.57,24.97h-1.47v2.04h1.47c.38.04.75-.15.95-.48.2-.33.2-.75,0-1.08s-.57-.52-.95-.48M221.68,30l-1.25-2.47h-1.32v2.47h-.59v-5.56h2.11c.43-.04.85.1,1.16.4.31.3.48.71.47,1.15.03.73-.48,1.37-1.2,1.49l1.3,2.52h-.69Z"/>
    <rect class="cls-5" x="223.66" y="24.44" width=".59" height="5.56"/>
    <path class="cls-5" d="M227.49,25.29l-1.03,2.94h2.06l-1.02-2.94ZM229.12,30l-.44-1.26h-2.4l-.44,1.26h-.63l2.02-5.56h.49l2.01,5.56h-.62Z"/>
    <polygon class="cls-5" points="230.71 30 230.71 24.44 231.3 24.44 231.3 29.47 234.11 29.47 234.11 30 230.71 30"/>
    <path class="cls-5" d="M236.63,30.05c-.7.05-1.39-.22-1.88-.73l.4-.41c.38.42.93.64,1.5.61.81,0,1.3-.38,1.3-1.03.02-.26-.08-.51-.26-.69-.2-.17-.46-.26-.72-.27l-.64-.1c-.37-.04-.72-.19-1.01-.42-.29-.27-.44-.65-.42-1.04,0-.94.67-1.57,1.76-1.57.61-.03,1.2.19,1.64.61l-.38.38c-.34-.33-.81-.5-1.28-.48-.29-.04-.59.05-.81.25-.22.2-.35.49-.34.78-.02.24.07.48.25.64.22.16.47.27.74.31l.6.09c.37.02.72.16,1,.39.31.28.48.68.46,1.1,0,.98-.75,1.58-1.9,1.58"/>
    <path class="cls-5" d="M243.24,30.05c-.7.05-1.39-.22-1.88-.73l.4-.41c.38.42.93.64,1.5.61.81,0,1.3-.38,1.3-1.03.02-.26-.08-.51-.26-.69-.2-.17-.46-.26-.72-.27l-.64-.1c-.37-.04-.72-.19-1.01-.42-.29-.27-.44-.65-.42-1.04,0-.94.67-1.57,1.76-1.57.61-.03,1.2.19,1.64.61l-.38.38c-.34-.33-.81-.5-1.28-.48-.29-.04-.59.05-.81.25-.22.2-.35.48-.34.78-.02.24.07.48.25.64.22.16.47.27.74.31l.6.09c.37.02.72.16,1.01.39.31.28.48.68.46,1.1,0,.98-.75,1.58-1.9,1.58"/>
    <path class="cls-5" d="M248.16,30.05c-.53,0-1.03-.2-1.41-.58-.52-.52-.52-1.07-.52-2.25s0-1.73.52-2.25c.37-.38.88-.58,1.41-.58.96-.03,1.79.69,1.91,1.66h-.6c-.09-.65-.65-1.14-1.3-1.12-.36,0-.7.14-.95.39-.35.36-.39.74-.39,1.91s.04,1.55.39,1.9c.36.35.88.48,1.35.33.48-.15.83-.56.92-1.06h.59c-.11.97-.94,1.69-1.91,1.66"/>
    <rect class="cls-5" x="251.45" y="24.44" width=".59" height="5.56"/>
    <polygon class="cls-5" points="253.7 30 253.7 24.44 257.11 24.44 257.11 24.97 254.29 24.97 254.29 26.93 256.7 26.93 256.7 27.46 254.29 27.46 254.29 29.47 257.11 29.47 257.11 30 253.7 30"/>
    <polygon class="cls-5" points="261.92 30 259 25.54 259 30 258.41 30 258.41 24.44 258.96 24.44 261.88 28.88 261.88 24.44 262.47 24.44 262.47 30 261.92 30"/>
    <path class="cls-5" d="M265.85,30.05c-.53,0-1.04-.2-1.41-.58-.52-.52-.52-1.07-.52-2.25s0-1.73.52-2.25c.37-.38.88-.58,1.41-.58.96-.03,1.79.69,1.91,1.66h-.6c-.09-.65-.65-1.14-1.3-1.12-.36,0-.7.14-.95.39-.35.36-.39.74-.39,1.91s.04,1.55.39,1.9c.36.35.88.48,1.35.33.48-.15.83-.56.92-1.06h.59c-.11.97-.94,1.69-1.91,1.66"/>
    <polygon class="cls-5" points="269.13 30 269.13 24.44 272.55 24.44 272.55 24.97 269.72 24.97 269.72 26.93 272.13 26.93 272.13 27.46 269.72 27.46 269.72 29.47 272.55 29.47 272.55 30 269.13 30"/>
    <path class="cls-5" d="M200.4,35.18c-.17,0-.34.06-.46.18-.12.12-.18.29-.18.47,0,.26.13.47.49.92.09-.06.29-.2.29-.2.25-.18.49-.37.49-.69,0-.18-.06-.35-.19-.47-.12-.13-.29-.19-.46-.19M200.11,37.42c-.47.33-.94.64-.94,1.27,0,.31.11.6.34.81.22.21.52.32.82.29.49,0,.95-.19,1.3-.54l-1.51-1.84ZM202.45,40.28l-.49-.61c-.43.43-1.02.66-1.62.66-.45.05-.9-.1-1.23-.41-.33-.31-.52-.75-.51-1.21,0-.84.59-1.26,1.19-1.66-.33-.32-.55-.75-.59-1.21.05-.64.58-1.13,1.21-1.13.63,0,1.16.5,1.2,1.14-.02.42-.25.79-.61.99,0,0-.28.19-.41.28l1.41,1.71c.24-.38.34-.83.31-1.27h.55c.03.61-.15,1.21-.51,1.7l.84,1.02h-.73Z"/>
    <polygon class="cls-5" points="206.58 40.28 206.58 34.72 209.99 34.72 209.99 35.25 207.16 35.25 207.16 37.21 209.57 37.21 209.57 37.74 207.16 37.74 207.16 39.75 209.99 39.75 209.99 40.28 206.58 40.28"/>
    <polygon class="cls-5" points="214.79 40.28 211.87 35.82 211.87 40.28 211.29 40.28 211.29 34.72 211.84 34.72 214.76 39.16 214.76 34.72 215.34 34.72 215.34 40.28 214.79 40.28"/>
    <path class="cls-5" d="M220.2,39.68c-.37.4-.88.63-1.42.64-.54.01-1.06-.2-1.45-.58-.52-.52-.52-1.07-.52-2.25s0-1.73.52-2.25c.37-.38.88-.59,1.41-.58.97-.03,1.8.69,1.92,1.66h-.59c-.09-.5-.44-.91-.92-1.07-.48-.15-1.01-.03-1.36.33-.35.36-.39.73-.39,1.9s.04,1.55.39,1.91c.25.25.59.39.95.39.4,0,.78-.17,1.04-.48.22-.29.33-.64.31-1.01v-.42h-1.35v-.52h1.94v.88c.04.52-.13,1.04-.47,1.44"/>
    <rect class="cls-5" x="222.11" y="34.72" width=".59" height="5.56"/>
    <polygon class="cls-5" points="227.87 40.28 224.95 35.82 224.95 40.28 224.37 40.28 224.37 34.72 224.92 34.72 227.84 39.16 227.84 34.72 228.43 34.72 228.43 40.28 227.87 40.28"/>
    <polygon class="cls-5" points="230.1 40.28 230.1 34.72 233.51 34.72 233.51 35.25 230.68 35.25 230.68 37.21 233.09 37.21 233.09 37.74 230.68 37.74 230.68 39.75 233.51 39.75 233.51 40.28 230.1 40.28"/>
    <polygon class="cls-5" points="234.8 40.28 234.8 34.72 238.22 34.72 238.22 35.25 235.39 35.25 235.39 37.21 237.8 37.21 237.8 37.74 235.39 37.74 235.39 39.75 238.22 39.75 238.22 40.28 234.8 40.28"/>
    <path class="cls-5" d="M241.57,35.25h-1.47v2.04h1.47c.38.04.75-.15.95-.48.2-.33.2-.75,0-1.08-.2-.33-.57-.52-.95-.48M242.67,40.28l-1.25-2.47h-1.32v2.47h-.59v-5.56h2.11c.43-.04.85.1,1.16.4.31.3.48.71.47,1.15.03.73-.48,1.37-1.2,1.49l1.3,2.52h-.69Z"/>
    <rect class="cls-5" x="244.66" y="34.72" width=".59" height="5.56"/>
    <polygon class="cls-5" points="250.42 40.28 247.5 35.82 247.5 40.28 246.91 40.28 246.91 34.72 247.47 34.72 250.39 39.16 250.39 34.72 250.97 34.72 250.97 40.28 250.42 40.28"/>
    <path class="cls-5" d="M255.82,39.68c-.37.4-.88.63-1.42.64-.54.01-1.06-.2-1.45-.58-.52-.52-.52-1.07-.52-2.25s0-1.73.52-2.25c.37-.38.88-.59,1.41-.58.97-.03,1.8.69,1.92,1.66h-.59c-.09-.5-.44-.91-.92-1.07-.48-.15-1.01-.03-1.36.33-.35.36-.39.73-.39,1.9s.04,1.55.39,1.91c.25.25.59.39.95.39.4,0,.78-.17,1.04-.48.22-.29.33-.64.31-1.01v-.42h-1.35v-.52h1.94v.88c.04.52-.13,1.04-.47,1.44"/>
  </g>
  <g>
    <path class="cls-6" d="M97.78,45.78h7.21c3.25,0,5.63.55,7.15,1.65,1.52,1.1,2.28,2.77,2.28,5,0,1.52-.46,2.79-1.39,3.8-.93,1.01-2.29,1.66-4.07,1.95v.11c2.1.31,3.64.97,4.63,1.99.99,1.01,1.48,2.42,1.48,4.23,0,2.42-.8,4.28-2.41,5.59-1.61,1.31-3.88,1.96-6.83,1.96h-8.05v-26.28ZM99.61,57.48h5.79c2.47,0,4.26-.41,5.38-1.23,1.12-.82,1.68-2.11,1.68-3.86s-.63-3.02-1.9-3.81-3.15-1.19-5.65-1.19h-5.3v10.08ZM99.61,59.1v11.34h6.18c4.86,0,7.3-1.98,7.3-5.93,0-3.61-2.56-5.41-7.69-5.41h-5.79Z"/>
    <path class="cls-6" d="M122.35,60.61v11.45h-1.83v-26.28h6.25c3.26,0,5.67.6,7.23,1.81s2.34,3.02,2.34,5.44c0,1.76-.46,3.25-1.39,4.46-.93,1.21-2.34,2.08-4.23,2.61l7.14,11.97h-2.19l-6.78-11.45h-6.52ZM122.35,59.03h5.01c2.22,0,3.94-.49,5.16-1.48,1.22-.99,1.83-2.45,1.83-4.38s-.6-3.46-1.8-4.37-3.15-1.37-5.86-1.37h-4.35v11.59Z"/>
    <path class="cls-6" d="M203.12,72.06h-2.25l-10.08-13.88-3.5,3.09v10.78h-1.83v-26.28h1.83v13.66l2.91-2.91,10.3-10.75h2.34l-10.77,11.11,11.05,15.17Z"/>
    <path class="cls-6" d="M228.05,60.61v11.45h-1.83v-26.28h6.25c3.26,0,5.67.6,7.23,1.81s2.34,3.02,2.34,5.44c0,1.76-.46,3.25-1.39,4.46-.93,1.21-2.34,2.08-4.23,2.61l7.14,11.97h-2.19l-6.78-11.45h-6.52ZM228.05,59.03h5.01c2.22,0,3.94-.49,5.16-1.48,1.22-.99,1.83-2.45,1.83-4.38s-.6-3.46-1.8-4.37-3.15-1.37-5.86-1.37h-4.35v11.59Z"/>
    <path class="cls-6" d="M283.69,53.33c0,2.54-.86,4.49-2.59,5.84-1.73,1.35-4.17,2.03-7.33,2.03h-4.06v10.86h-1.83v-26.28h6.43c6.25,0,9.38,2.52,9.38,7.55ZM269.7,59.62h3.61c2.96,0,5.1-.49,6.42-1.46,1.32-.98,1.98-2.56,1.98-4.75,0-2.02-.62-3.53-1.87-4.5-1.25-.98-3.18-1.46-5.79-1.46h-4.35v12.19Z"/>
    <path class="cls-6" d="M254.81,72.18c-3.89,0-6.31-1.06-8.7-3.45l1.4-1.4c2.35,2.35,4.26,3.08,7.42,3.08,4.11,0,6.72-1.98,6.72-5.4,0-1.54-.48-2.83-1.43-3.67-.95-.81-1.65-1.06-3.78-1.39l-3.05-.48c-1.98-.29-3.56-.95-4.66-1.91-1.39-1.17-2.06-2.79-2.06-4.81,0-4.37,3.12-7.16,8.11-7.16,3.23,0,5.29.88,7.52,2.83l-1.28,1.29c-1.62-1.43-3.23-2.42-6.35-2.42-3.78,0-6.06,2.09-6.06,5.4,0,1.5.44,2.64,1.36,3.41.92.77,2.42,1.4,3.89,1.62l2.83.44c2.46.37,3.56.81,4.66,1.73,1.43,1.17,2.28,2.97,2.28,5.07,0,4.41-3.38,7.23-8.81,7.23"/>
    <polygon class="cls-6" points="141.11 71.96 141.11 45.82 156.97 45.82 156.97 47.58 143.09 47.58 143.09 57.9 154.91 57.9 154.91 59.66 143.09 59.66 143.09 70.19 156.97 70.19 156.97 71.96 141.11 71.96"/>
    <polygon class="cls-6" points="206.49 71.96 206.49 45.82 222.35 45.82 222.35 47.58 208.48 47.58 208.48 57.9 220.3 57.9 220.3 59.66 208.48 59.66 208.48 70.19 222.35 70.19 222.35 71.96 206.49 71.96"/>
    <polygon class="cls-6" points="325.23 71.96 325.23 45.82 341.09 45.82 341.09 47.58 327.21 47.58 327.21 57.9 339.03 57.9 339.03 59.66 327.21 59.66 327.21 70.19 341.09 70.19 341.09 71.96 325.23 71.96"/>
    <path class="cls-6" d="M319.21,53.3h1.7c-.54-4.63-4.49-8.07-9.1-7.9-2.52-.03-4.94.96-6.72,2.76-2.47,2.5-2.47,5.1-2.47,10.73s0,8.23,2.47,10.73c1.78,1.79,4.21,2.79,6.72,2.76,4.6.16,8.56-3.27,9.1-7.9h-1.7c-.52,3.62-3.71,6.34-7.33,6.21h-.04s-.04,0-.04,0c-2.05.01-4.05-.8-5.5-2.25-1.89-1.92-1.98-3.69-1.98-9.54s.08-7.63,1.98-9.54c1.45-1.46,3.47-2.29,5.5-2.26h.04s.04,0,.04,0c3.64-.13,6.81,2.59,7.33,6.21Z"/>
    <path class="cls-6" d="M299.45,72.06l-2.07-5.97h-12.9l-2.09,5.97h-2.07l9.6-26.39h2.07l9.55,26.39h-2.09ZM290.96,47.58l-5.75,16.45h11.46l-5.71-16.45Z"/>
    <path class="cls-6" d="M179.99,72.06l-2.07-5.97h-12.9l-2.09,5.97h-2.07l9.6-26.39h2.07l9.55,26.39h-2.09ZM171.5,47.58l-5.75,16.45h11.46l-5.71-16.45Z"/>
  </g>
</svg>