<?xml version="1.0" encoding="utf-8"?>
<!-- Generator: Adobe Illustrator 28.0.0, SVG Export Plug-In . SVG Version: 6.00 Build 0)  -->
<svg version="1.1" id="Layer_1" xmlns="http://www.w3.org/2000/svg" xmlns:xlink="http://www.w3.org/1999/xlink" x="0px" y="0px"
	 viewBox="0 0 365.2 86.5" style="enable-background:new 0 0 365.2 86.5;" xml:space="preserve">
<style type="text/css">
	.st0{fill:#C0C0C0;}
	.st1{fill:#00A1ED;}
	.st2{fill:#FFFFFF;}
	.st3{fill:#009DE6;}
	.st4{fill:#AE0721;}
	.st5{fill:#B40D08;}
</style>
<path class="st0" d="M29.9,51L29.9,51l14.4-0.1l7.2-12.4H37.1L29.9,51z"/>
<path class="st1" d="M44.7,51.6H29.9v-0.6l-0.8-0.4l0.2-0.6h0.1l7.2-12.4h15.3l0.4,0.8l-0.2,0.4L44.7,51.6z M31.2,50.1h12.6
	l6.3-10.9H37.5L31.2,50.1z"/>
<path class="st2" d="M29.8,25.8L29.8,25.8l7.3,12.6l14.4,0l0.1-0.1l-7.2-12.5H29.8z"/>
<path class="st3" d="M36.6,39.2L28,24.2l2,0.9h14.7l7.7,13.3l-0.5,0.9L36.6,39.2z M31.1,26.6l6.4,11.1l12.7,0l-6.4-11.1L31.1,26.6z"
	/>
<path class="st4" d="M29.8,25.8l-7.2,12.5L29.9,51l7.2-12.5L29.8,25.8z"/>
<path class="st3" d="M29.8,52.6l-0.6-1.3l-7.5-13l8.1-14.1L38,38.4L29.8,52.6z M23.5,38.3l6.4,11.1l6.3-11l-6.4-11.1L23.5,38.3z"/>
<path class="st3" d="M24,64.2h13.6l6.8-11.7l6.3,11l-6.8,11.7H30.3L24,64.2z M30.3,51.6H43l-6.3,11H24L30.3,51.6z M16.3,50.9
	l6.3-10.9l6.3,11l-6.3,10.9L16.3,50.9z M45.7,51.6h13.6L66,39.9l6.3,11l-6.8,11.8H52L45.7,51.6z M1.8,50.9l6.8-11.8h12.7l-6.8,11.8
	l6.8,11.8H8.6L1.8,50.9z M52,39.1h12.7l-6.3,11H45.6L52,39.1z M23.5,38.3l6.8-11.7h13.6l6.8,11.8l-6.3,10.9L37.8,38l0,0l0,0
	l-1.3,0.8L43,50.1H30.3L23.5,38.3z M45.6,26.6h12.7l6.4,11H52L45.6,26.6z M16.2,25.8l6.3-11l6.3,11l-6.3,11L16.2,25.8z M1.8,25.8
	l6.8-11.8h12.7l-6.8,11.8l6.8,11.8H8.6L1.8,25.8z M23.9,14.1h12.7l6.3,11H30.3L23.9,14.1z M52,14.1h13.6l6.8,11.8l-6.3,11L59.2,25
	H45.6L52,14.1z M30.2,1.5h13.6l6.8,11.8l-6.3,11l-6.8-11.7H23.9L30.2,1.5z M29.4,0l-7.2,12.5H7.7L0,25.8l7.3,12.6L0.1,50.9l7.7,13.3
	h14.5l7.2,12.5h15.3L52,64.2h14.4l7.7-13.3l-7.2-12.5l0,0l0,0l7.2-12.5l-7.7-13.3H51.9L44.7,0H29.4z"/>
<g>
	<g>
		<path class="st0" d="M83.2,35V0.7h9.6c2.8,0,5.3,0.6,7.6,1.9c2.2,1.3,4,3.1,5.2,5.5c1.2,2.4,1.9,5.1,1.9,8.2v3.2
			c0,3.1-0.6,5.8-1.9,8.1c-1.2,2.4-3,4.2-5.2,5.5c-2.3,1.3-4.8,1.9-7.8,1.9H83.2z M86.1,3.1v29.4h6.5c3.6,0,6.5-1.2,8.7-3.6
			c2.2-2.4,3.3-5.6,3.3-9.7v-3c0-3.9-1.1-7.1-3.2-9.5c-2.2-2.4-5-3.6-8.5-3.6H86.1z"/>
		<path class="st5" d="M118.7,0.7L131.3,31L144,0.7h3.9V35H145V20.1l0.2-15.3L132.4,35h-2.2L117.5,4.9l0.2,15.1v15h-2.9V0.7H118.7z"
			/>
		<path class="st5" d="M176,26.6c0-1.9-0.7-3.4-2-4.5c-1.3-1.1-3.8-2.2-7.3-3.2c-3.5-1-6.1-2.1-7.8-3.3c-2.3-1.7-3.5-3.8-3.5-6.5
			c0-2.6,1.1-4.8,3.2-6.4c2.2-1.6,4.9-2.5,8.3-2.5c2.3,0,4.3,0.4,6.1,1.3c1.8,0.9,3.2,2.1,4.2,3.7c1,1.6,1.5,3.3,1.5,5.3h-2.9
			c0-2.3-0.8-4.2-2.4-5.7s-3.8-2.1-6.5-2.1c-2.6,0-4.7,0.6-6.3,1.8s-2.3,2.7-2.3,4.6c0,1.7,0.7,3.2,2.1,4.3c1.4,1.1,3.6,2.1,6.7,2.9
			s5.4,1.7,7,2.6c1.6,0.9,2.8,2,3.6,3.2s1.2,2.7,1.2,4.5c0,2.7-1.1,4.9-3.2,6.5c-2.2,1.6-5,2.4-8.5,2.4c-2.4,0-4.6-0.4-6.7-1.3
			c-2-0.9-3.5-2.1-4.6-3.6c-1-1.6-1.6-3.3-1.6-5.3h2.9c0,2.4,0.9,4.3,2.7,5.7c1.8,1.4,4.2,2.1,7.2,2.1c2.7,0,4.8-0.6,6.4-1.8
			S176,28.5,176,26.6z"/>
		<path class="st5" d="M204.1,18.5h-16v14h18.4V35h-21.3V0.7h21.2v2.4H188v13h16V18.5z"/>
		<path class="st3" d="M83.2,74.6V40.3h10.1c3.7,0,6.5,0.8,8.4,2.3s2.9,3.8,2.9,6.7c0,1.8-0.5,3.3-1.4,4.6c-1,1.3-2.3,2.3-4,2.8
			c2,0.4,3.6,1.4,4.8,2.9c1.2,1.5,1.8,3.3,1.8,5.3c0,3-1,5.4-2.9,7.1c-2,1.7-4.7,2.6-8.2,2.6H83.2z M86.1,55.7H94
			c2.4,0,4.3-0.6,5.6-1.7c1.3-1.1,2-2.7,2-4.8c0-2.2-0.7-3.8-2.1-4.9c-1.4-1-3.5-1.6-6.2-1.6h-7.2V55.7z M86.1,58.2v14h8.7
			c2.5,0,4.4-0.6,5.9-1.9c1.5-1.3,2.2-3,2.2-5.3c0-2.1-0.7-3.8-2.1-5c-1.4-1.2-3.3-1.8-5.8-1.8H86.1z"/>
		<path class="st3" d="M123.9,51.5c-0.6-0.1-1.2-0.2-1.9-0.2c-1.8,0-3.2,0.5-4.5,1.5s-2.1,2.4-2.6,4.3v17.5h-2.8V49.1h2.8l0,4.1
			c1.5-3,3.9-4.5,7.2-4.5c0.8,0,1.4,0.1,1.9,0.3L123.9,51.5z"/>
		<path class="st3" d="M138.2,75.1c-2.2,0-4.1-0.5-5.9-1.6c-1.8-1.1-3.1-2.6-4.1-4.5c-1-1.9-1.5-4-1.5-6.4v-1c0-2.4,0.5-4.7,1.4-6.6
			s2.3-3.5,4-4.6c1.7-1.1,3.5-1.7,5.5-1.7c3.1,0,5.5,1.1,7.4,3.2c1.8,2.1,2.7,5,2.7,8.7v1.6h-18.2v0.5c0,2.9,0.8,5.3,2.5,7.2
			c1.7,1.9,3.7,2.9,6.3,2.9c1.5,0,2.8-0.3,4-0.8s2.2-1.4,3.1-2.6l1.8,1.3C145.2,73.6,142.2,75.1,138.2,75.1z M137.7,51.1
			c-2.1,0-3.9,0.8-5.4,2.3s-2.3,3.6-2.6,6.3H145v-0.3c-0.1-2.4-0.8-4.4-2.1-6C141.6,51.8,139.8,51.1,137.7,51.1z"/>
		<path class="st3" d="M169.4,74.6c-0.3-0.8-0.5-2-0.5-3.6c-1,1.3-2.2,2.3-3.8,3s-3.2,1-4.9,1c-2.4,0-4.4-0.7-5.9-2
			c-1.5-1.4-2.3-3.1-2.3-5.2c0-2.5,1-4.4,3.1-5.9c2.1-1.4,4.9-2.2,8.6-2.2h5.1v-2.9c0-1.8-0.6-3.3-1.7-4.3c-1.1-1-2.8-1.6-4.9-1.6
			c-2,0-3.6,0.5-4.9,1.5c-1.3,1-1.9,2.2-1.9,3.6l-2.8,0c0-2,0.9-3.8,2.8-5.3c1.9-1.5,4.2-2.2,6.9-2.2c2.8,0,5.1,0.7,6.7,2.1
			c1.6,1.4,2.5,3.4,2.5,5.9v12.1c0,2.5,0.3,4.3,0.8,5.5v0.3H169.4z M160.5,72.6c1.9,0,3.6-0.5,5.1-1.4c1.5-0.9,2.6-2.1,3.2-3.7V62
			h-5c-2.8,0-5,0.5-6.6,1.5c-1.6,1-2.4,2.4-2.4,4.1c0,1.4,0.5,2.6,1.6,3.6C157.4,72.1,158.8,72.6,160.5,72.6z"/>
		<path class="st3" d="M185.2,61.8l-3.2,3.1v9.7h-2.8V38.4h2.8v23.2l2.7-2.9l9.8-9.6h3.6l-10.8,10.7l11.8,14.7h-3.4L185.2,61.8z"/>
		<path class="st3" d="M212.6,75.1c-2.2,0-4.1-0.5-5.9-1.6c-1.8-1.1-3.1-2.6-4.1-4.5c-1-1.9-1.5-4-1.5-6.4v-1c0-2.4,0.5-4.7,1.4-6.6
			s2.3-3.5,4-4.6c1.7-1.1,3.5-1.7,5.5-1.7c3.1,0,5.5,1.1,7.4,3.2c1.8,2.1,2.7,5,2.7,8.7v1.6H204v0.5c0,2.9,0.8,5.3,2.5,7.2
			c1.7,1.9,3.7,2.9,6.3,2.9c1.5,0,2.8-0.3,4-0.8s2.2-1.4,3.1-2.6l1.8,1.3C219.6,73.6,216.6,75.1,212.6,75.1z M212.1,51.1
			c-2.1,0-3.9,0.8-5.4,2.3s-2.3,3.6-2.6,6.3h15.3v-0.3c-0.1-2.4-0.8-4.4-2.1-6C216,51.8,214.2,51.1,212.1,51.1z"/>
		<path class="st3" d="M239.4,51.5c-0.6-0.1-1.2-0.2-1.9-0.2c-1.8,0-3.2,0.5-4.5,1.5s-2.1,2.4-2.6,4.3v17.5h-2.8V49.1h2.8l0,4.1
			c1.5-3,3.9-4.5,7.2-4.5c0.8,0,1.4,0.1,1.9,0.3L239.4,51.5z"/>
		<path class="st3" d="M259.2,68.1c0-1.4-0.6-2.5-1.7-3.4c-1.1-0.8-2.8-1.5-5.1-2c-2.3-0.5-4-1-5.3-1.6c-1.2-0.6-2.2-1.4-2.8-2.3
			c-0.6-0.9-0.9-2-0.9-3.2c0-2,0.8-3.7,2.5-5c1.7-1.3,3.8-2,6.5-2c2.8,0,5.1,0.7,6.8,2.1c1.7,1.4,2.6,3.2,2.6,5.5H259
			c0-1.5-0.6-2.7-1.9-3.7c-1.2-1-2.8-1.5-4.7-1.5c-1.9,0-3.3,0.4-4.5,1.2c-1.1,0.8-1.7,1.9-1.7,3.2c0,1.3,0.5,2.3,1.4,3
			c0.9,0.7,2.6,1.3,5.1,1.9c2.5,0.6,4.3,1.2,5.6,1.9c1.2,0.7,2.1,1.5,2.7,2.4c0.6,0.9,0.9,2,0.9,3.4c0,2.2-0.9,3.9-2.6,5.2
			c-1.7,1.3-4,1.9-6.8,1.9c-3,0-5.4-0.7-7.2-2.2c-1.8-1.4-2.8-3.3-2.8-5.5h2.8c0.1,1.6,0.8,2.9,2.1,3.9c1.3,0.9,3,1.4,5.1,1.4
			c2,0,3.5-0.4,4.8-1.3C258.6,70.6,259.2,69.5,259.2,68.1z"/>
		<path class="st3" d="M288.8,62.1c0,4-0.9,7.1-2.6,9.5c-1.8,2.3-4.1,3.5-7.1,3.5c-3.5,0-6.2-1.2-8-3.7v13h-2.8V49.1h2.6l0.1,3.6
			c1.8-2.7,4.5-4.1,8-4.1c3,0,5.4,1.2,7.2,3.5s2.6,5.5,2.6,9.6V62.1z M286,61.6c0-3.3-0.7-5.8-2-7.7c-1.3-1.9-3.2-2.8-5.6-2.8
			c-1.7,0-3.2,0.4-4.5,1.2c-1.2,0.8-2.2,2-2.9,3.6v12.2c0.7,1.5,1.6,2.6,2.9,3.3c1.3,0.8,2.7,1.2,4.5,1.2c2.4,0,4.2-0.9,5.5-2.8
			S286,65.2,286,61.6z"/>
		<path class="st3" d="M311.1,74.6c-0.3-0.8-0.5-2-0.5-3.6c-1,1.3-2.2,2.3-3.8,3s-3.2,1-4.9,1c-2.4,0-4.4-0.7-5.9-2
			c-1.5-1.4-2.3-3.1-2.3-5.2c0-2.5,1-4.4,3.1-5.9c2.1-1.4,4.9-2.2,8.6-2.2h5.1v-2.9c0-1.8-0.6-3.3-1.7-4.3c-1.1-1-2.8-1.6-4.9-1.6
			c-2,0-3.6,0.5-4.9,1.5c-1.3,1-1.9,2.2-1.9,3.6l-2.8,0c0-2,0.9-3.8,2.8-5.3c1.9-1.5,4.2-2.2,6.9-2.2c2.8,0,5.1,0.7,6.7,2.1
			c1.6,1.4,2.5,3.4,2.5,5.9v12.1c0,2.5,0.3,4.3,0.8,5.5v0.3H311.1z M302.3,72.6c1.9,0,3.6-0.5,5.1-1.4c1.5-0.9,2.6-2.1,3.2-3.7V62
			h-5c-2.8,0-5,0.5-6.6,1.5c-1.6,1-2.4,2.4-2.4,4.1c0,1.4,0.5,2.6,1.6,3.6C299.2,72.1,300.6,72.6,302.3,72.6z"/>
		<path class="st3" d="M330.3,72.7c2,0,3.6-0.6,4.9-1.7c1.3-1.1,2-2.5,2.2-4.3h2.7c-0.1,1.6-0.6,3-1.5,4.3c-0.9,1.3-2.1,2.3-3.6,3
			c-1.5,0.7-3.1,1.1-4.8,1.1c-3.3,0-6-1.2-8-3.5s-2.9-5.4-2.9-9.4v-0.8c0-2.5,0.4-4.7,1.3-6.7c0.9-1.9,2.1-3.4,3.8-4.5
			c1.6-1.1,3.6-1.6,5.8-1.6c2.8,0,5.1,0.8,6.9,2.5c1.8,1.7,2.8,3.9,2.9,6.6h-2.7c-0.1-2-0.8-3.6-2.2-4.8s-3-1.8-5-1.8
			c-2.5,0-4.5,0.9-5.9,2.8c-1.4,1.8-2.1,4.4-2.1,7.7v0.8c0,3.3,0.7,5.8,2.1,7.6C325.8,71.8,327.8,72.7,330.3,72.7z"/>
		<path class="st3" d="M355.6,75.1c-2.2,0-4.1-0.5-5.9-1.6c-1.8-1.1-3.1-2.6-4.1-4.5c-1-1.9-1.5-4-1.5-6.4v-1c0-2.4,0.5-4.7,1.4-6.6
			s2.3-3.5,4-4.6c1.7-1.1,3.5-1.7,5.5-1.7c3.1,0,5.5,1.1,7.4,3.2c1.8,2.1,2.7,5,2.7,8.7v1.6H347v0.5c0,2.9,0.8,5.3,2.5,7.2
			c1.7,1.9,3.7,2.9,6.3,2.9c1.5,0,2.8-0.3,4-0.8s2.2-1.4,3.1-2.6l1.8,1.3C362.6,73.6,359.6,75.1,355.6,75.1z M355.1,51.1
			c-2.1,0-3.9,0.8-5.4,2.3s-2.3,3.6-2.6,6.3h15.3v-0.3c-0.1-2.4-0.8-4.4-2.1-6C359,51.8,357.2,51.1,355.1,51.1z"/>
	</g>
</g>
</svg>
