<?xml version="1.0" encoding="UTF-8"?>
<svg id="Layer_1" xmlns="http://www.w3.org/2000/svg" xmlns:xlink="http://www.w3.org/1999/xlink" viewBox="0 0 343.48 82.87">
  <defs>
    <style>
      .cls-1, .cls-2, .cls-3, .cls-4, .cls-5 {
        fill: none;
      }

      .cls-2 {
        stroke: #be222f;
        stroke-width: 2px;
      }

      .cls-2, .cls-3, .cls-4, .cls-5 {
        stroke-miterlimit: 10;
      }

      .cls-3 {
        opacity: .81;
      }

      .cls-3, .cls-4 {
        stroke: #29aae2;
      }

      .cls-5 {
        stroke: #000;
        stroke-width: .5px;
      }

      .cls-6 {
        fill: #29abe2;
      }

      .cls-7 {
        fill: #be202e;
      }

      .cls-8 {
        clip-path: url(#clippath);
      }
    </style>
    <clipPath id="clippath">
      <rect class="cls-1" x="1.67" y="-1.67" width="82.87" height="86.21" transform="translate(84.54 -1.67) rotate(90)"/>
    </clipPath>
  </defs>
  <g>
    <path class="cls-7" d="M114.01,16.28c-1.5-1.54-3.51-2.02-5.59-2.02h-6.29v22.61h6.29c2.08,0,4.09-.48,5.59-2.02,2.08-2.13,1.94-6.76,1.94-9.65s.15-6.79-1.94-8.92M115.4,36.25c-1.54,1.54-3.8,2.39-6.51,2.39h-8.74V12.5h8.73c2.7,0,4.97.84,6.51,2.39,2.63,2.64,2.52,6.79,2.52,10.32s.11,8.41-2.52,11.05"/>
    <polygon class="cls-7" points="144.82 38.64 144.82 17.09 136.93 34.97 134.96 34.97 126.92 17.09 126.92 38.64 124.94 38.64 124.94 12.5 126.92 12.5 135.98 32.66 144.82 12.5 146.8 12.5 146.8 38.64 144.82 38.64"/>
    <path class="cls-7" d="M161.35,38.86c-3.87,0-6.29-1.06-8.66-3.45l1.39-1.4c2.34,2.35,4.24,3.08,7.38,3.08,4.09,0,6.69-1.98,6.69-5.4.08-1.38-.44-2.72-1.43-3.67-.95-.81-1.64-1.06-3.76-1.4l-3.03-.48c-1.69-.18-3.3-.84-4.64-1.91-1.38-1.19-2.14-2.97-2.05-4.81,0-4.37,3.11-7.16,8.08-7.16,2.77-.11,5.47.9,7.49,2.83l-1.28,1.29c-1.69-1.66-3.97-2.54-6.32-2.42-3.76,0-6.03,2.09-6.03,5.4,0,1.51.44,2.64,1.35,3.41,1.13.86,2.47,1.42,3.88,1.62l2.81.44c2.45.37,3.54.81,4.64,1.73,1.48,1.25,2.31,3.12,2.26,5.07,0,4.41-3.36,7.23-8.77,7.23"/>
    <polygon class="cls-7" points="176.29 38.64 176.29 12.5 192.08 12.5 192.08 14.27 178.27 14.27 178.27 24.58 190.04 24.58 190.04 26.34 178.27 26.34 178.27 36.88 192.08 36.88 192.08 38.64 176.29 38.64"/>
    <path d="M204.05,13.32c-.29-.28-.68-.43-1.08-.41h-1.2v4.5h1.2c.4.02.79-.12,1.08-.41.38-.4.36-1.23.36-1.91s.02-1.38-.36-1.78M204.46,17.43c-.38.35-.88.54-1.39.52h-1.88v-5.56h1.88c.51-.02,1.01.16,1.39.52.57.58.54,1.43.54,2.2s.03,1.75-.54,2.33"/>
    <polygon points="206.46 17.94 206.46 12.38 209.87 12.38 209.87 12.91 207.05 12.91 207.05 14.87 209.46 14.87 209.46 15.4 207.05 15.4 207.05 17.41 209.87 17.41 209.87 17.94 206.46 17.94"/>
    <path d="M213.16,12.91h-1.41v2.21h1.41c.31.04.61-.06.84-.28.23-.21.34-.52.33-.83.02-.31-.1-.61-.33-.83-.23-.21-.53-.31-.84-.27M213.22,15.65h-1.46v2.29h-.59v-5.56h2.05c.45-.04.89.12,1.21.43.32.31.5.75.49,1.2.02.45-.16.89-.48,1.21-.32.31-.77.47-1.21.43"/>
    <path d="M217.3,13.23l-1.03,2.94h2.05l-1.02-2.94ZM218.93,17.94l-.44-1.26h-2.4l-.44,1.26h-.63l2.02-5.56h.49l2.02,5.56h-.63Z"/>
    <path d="M222.58,12.91h-1.47v2.04h1.47c.28.04.57-.05.78-.25.21-.2.33-.48.31-.77.01-.29-.1-.57-.31-.77-.21-.2-.5-.29-.78-.25M223.68,17.94l-1.25-2.47h-1.32v2.47h-.59v-5.56h2.11c.43-.04.85.1,1.16.4.31.3.48.71.47,1.15.03.73-.48,1.37-1.2,1.49l1.3,2.52h-.69Z"/>
    <polygon points="227.28 12.91 227.28 17.94 226.69 17.94 226.69 12.91 225.1 12.91 225.1 12.38 228.87 12.38 228.87 12.91 227.28 12.91"/>
    <polygon points="234.1 17.94 234.1 13.71 232.59 17.06 232.09 17.06 230.56 13.71 230.56 17.94 229.97 17.94 229.97 12.38 230.56 12.38 232.35 16.32 234.1 12.38 234.68 12.38 234.68 17.94 234.1 17.94"/>
    <polygon points="236.35 17.94 236.35 12.38 239.77 12.38 239.77 12.91 236.94 12.91 236.94 14.87 239.35 14.87 239.35 15.4 236.94 15.4 236.94 17.41 239.77 17.41 239.77 17.94 236.35 17.94"/>
    <polygon points="244.57 17.94 241.65 13.48 241.65 17.94 241.06 17.94 241.06 12.38 241.62 12.38 244.54 16.82 244.54 12.38 245.12 12.38 245.12 17.94 244.57 17.94"/>
    <polygon points="248.41 12.91 248.41 17.94 247.82 17.94 247.82 12.91 246.23 12.91 246.23 12.38 250 12.38 250 12.91 248.41 12.91"/>
    <path d="M255.77,13.26c-.52-.53-1.37-.53-1.9,0-.35.36-.39.73-.39,1.9s.04,1.54.39,1.9c.25.26.59.4.95.4s.7-.14.95-.4c.35-.36.39-.73.39-1.9s-.04-1.54-.39-1.9M256.22,17.41c-.78.77-2.03.77-2.81,0-.52-.52-.52-1.07-.52-2.25s0-1.73.52-2.25c.78-.77,2.03-.77,2.81,0,.52.52.52,1.07.52,2.25s0,1.73-.52,2.25"/>
    <polygon points="258.78 12.91 258.78 14.96 261.19 14.96 261.19 15.49 258.78 15.49 258.78 17.94 258.2 17.94 258.2 12.38 261.61 12.38 261.61 12.91 258.78 12.91"/>
    <polygon points="205.31 28.21 205.31 23.99 203.81 27.34 203.3 27.34 201.77 23.99 201.77 28.21 201.19 28.21 201.19 22.65 201.77 22.65 203.57 26.6 205.31 22.65 205.9 22.65 205.9 28.21 205.31 28.21"/>
    <path d="M209.14,23.51l-1.03,2.94h2.05l-1.02-2.94ZM210.77,28.21l-.44-1.26h-2.4l-.44,1.26h-.63l2.02-5.56h.49l2.01,5.56h-.62Z"/>
    <polygon points="213.51 23.18 213.51 28.22 212.93 28.22 212.93 23.19 211.33 23.19 211.33 22.65 215.1 22.65 215.1 23.18 213.51 23.18"/>
    <polygon points="216.21 28.21 216.21 22.65 219.62 22.65 219.62 23.18 216.79 23.18 216.79 25.15 219.2 25.15 219.2 25.68 216.79 25.68 216.79 27.68 219.62 27.68 219.62 28.21 216.21 28.21"/>
    <path d="M222.97,23.18h-1.47v2.04h1.47c.38.04.75-.15.95-.48.2-.33.2-.75,0-1.08s-.57-.52-.95-.48M224.07,28.21l-1.25-2.47h-1.32v2.47h-.59v-5.56h2.11c.43-.04.85.1,1.16.4.31.3.48.71.47,1.15.03.73-.48,1.37-1.2,1.49l1.3,2.52h-.69Z"/>
    <rect x="226.06" y="22.65" width=".59" height="5.56"/>
    <path d="M229.89,23.51l-1.03,2.94h2.06l-1.02-2.94ZM231.52,28.21l-.44-1.26h-2.4l-.44,1.26h-.63l2.02-5.56h.49l2.01,5.56h-.62Z"/>
    <polygon points="233.11 28.21 233.11 22.65 233.7 22.65 233.7 27.68 236.51 27.68 236.51 28.21 233.11 28.21"/>
    <path d="M239.02,28.26c-.7.05-1.39-.22-1.88-.73l.4-.41c.38.42.93.64,1.5.61.81,0,1.3-.38,1.3-1.03.02-.26-.08-.51-.26-.69-.2-.17-.46-.26-.72-.27l-.64-.1c-.37-.04-.72-.19-1.01-.42-.29-.27-.44-.65-.42-1.04,0-.94.67-1.57,1.76-1.57.61-.03,1.2.19,1.64.61l-.38.38c-.34-.33-.81-.5-1.28-.48-.29-.04-.59.05-.81.25-.22.2-.35.49-.34.78-.02.24.07.48.25.64.22.16.47.27.74.31l.6.09c.37.02.72.16,1,.39.31.28.48.68.46,1.1,0,.98-.75,1.58-1.9,1.58"/>
    <path d="M245.64,28.26c-.7.05-1.39-.22-1.88-.73l.4-.41c.38.42.93.64,1.5.61.81,0,1.3-.38,1.3-1.03.02-.26-.08-.51-.26-.69-.2-.17-.46-.26-.72-.27l-.64-.1c-.37-.04-.72-.19-1.01-.42-.29-.27-.44-.65-.42-1.04,0-.94.67-1.57,1.76-1.57.61-.03,1.2.19,1.64.61l-.38.38c-.34-.33-.81-.5-1.28-.48-.29-.04-.59.05-.81.25-.22.2-.35.48-.34.78-.02.24.07.48.25.64.22.16.47.27.74.31l.6.09c.37.02.72.16,1.01.39.31.28.48.68.46,1.1,0,.98-.75,1.58-1.9,1.58"/>
    <path d="M250.56,28.26c-.53,0-1.03-.2-1.41-.58-.52-.52-.52-1.07-.52-2.25s0-1.73.52-2.25c.37-.38.88-.58,1.41-.58.96-.03,1.79.69,1.91,1.66h-.6c-.09-.65-.65-1.14-1.3-1.12-.36,0-.7.14-.95.39-.35.36-.39.74-.39,1.91s.04,1.55.39,1.9c.36.35.88.48,1.35.33.48-.15.83-.56.92-1.06h.59c-.11.97-.94,1.69-1.91,1.66"/>
    <rect x="253.84" y="22.65" width=".59" height="5.56"/>
    <polygon points="256.1 28.21 256.1 22.65 259.51 22.65 259.51 23.18 256.68 23.18 256.68 25.15 259.09 25.15 259.09 25.68 256.68 25.68 256.68 27.68 259.51 27.68 259.51 28.21 256.1 28.21"/>
    <polygon points="264.31 28.21 261.39 23.76 261.39 28.21 260.81 28.21 260.81 22.65 261.36 22.65 264.28 27.1 264.28 22.65 264.86 22.65 264.86 28.21 264.31 28.21"/>
    <path d="M268.25,28.26c-.53,0-1.04-.2-1.41-.58-.52-.52-.52-1.07-.52-2.25s0-1.73.52-2.25c.37-.38.88-.58,1.41-.58.96-.03,1.79.69,1.91,1.66h-.6c-.09-.65-.65-1.14-1.3-1.12-.36,0-.7.14-.95.39-.35.36-.39.74-.39,1.91s.04,1.55.39,1.9c.36.35.88.48,1.35.33.48-.15.83-.56.92-1.06h.59c-.11.97-.94,1.69-1.91,1.66"/>
    <polygon points="271.53 28.21 271.53 22.65 274.94 22.65 274.94 23.18 272.12 23.18 272.12 25.15 274.53 25.15 274.53 25.68 272.12 25.68 272.12 27.68 274.94 27.68 274.94 28.21 271.53 28.21"/>
    <path d="M202.8,33.39c-.17,0-.34.06-.46.18-.12.12-.18.29-.18.47,0,.26.13.47.49.92.09-.06.29-.2.29-.2.25-.18.49-.37.49-.69,0-.18-.06-.35-.19-.47-.12-.13-.29-.19-.46-.19M202.5,35.63c-.47.33-.94.64-.94,1.27,0,.31.11.6.34.81.22.21.52.32.82.29.49,0,.95-.19,1.3-.54l-1.51-1.84ZM204.84,38.49l-.49-.61c-.43.43-1.02.66-1.62.66-.45.05-.9-.1-1.23-.41-.33-.31-.52-.75-.51-1.21,0-.84.59-1.26,1.19-1.66-.33-.32-.55-.75-.59-1.21.05-.64.58-1.13,1.21-1.13.63,0,1.16.5,1.2,1.14-.02.42-.25.79-.61.99,0,0-.28.19-.41.28l1.41,1.71c.24-.38.34-.83.31-1.27h.55c.03.61-.15,1.21-.51,1.7l.84,1.02h-.73Z"/>
    <polygon points="208.97 38.49 208.97 32.93 212.38 32.93 212.38 33.46 209.56 33.46 209.56 35.42 211.97 35.42 211.97 35.95 209.56 35.95 209.56 37.96 212.38 37.96 212.38 38.49 208.97 38.49"/>
    <polygon points="217.19 38.49 214.27 34.03 214.27 38.49 213.68 38.49 213.68 32.93 214.24 32.93 217.15 37.37 217.15 32.93 217.74 32.93 217.74 38.49 217.19 38.49"/>
    <path d="M222.59,37.9c-.37.4-.88.63-1.42.64-.54.01-1.06-.2-1.45-.58-.52-.52-.52-1.07-.52-2.25s0-1.73.52-2.25c.37-.38.88-.59,1.41-.58.97-.03,1.8.69,1.92,1.66h-.59c-.09-.5-.44-.91-.92-1.07-.48-.15-1.01-.03-1.36.33-.35.36-.39.73-.39,1.9s.04,1.55.39,1.91c.25.25.59.39.95.39.4,0,.78-.17,1.04-.48.22-.29.33-.64.31-1.01v-.42h-1.35v-.52h1.94v.88c.04.52-.13,1.04-.47,1.44"/>
    <rect x="224.51" y="32.93" width=".59" height="5.56"/>
    <polygon points="230.27 38.49 227.35 34.03 227.35 38.49 226.76 38.49 226.76 32.93 227.32 32.93 230.23 37.37 230.23 32.93 230.82 32.93 230.82 38.49 230.27 38.49"/>
    <polygon points="232.49 38.49 232.49 32.93 235.9 32.93 235.9 33.46 233.08 33.46 233.08 35.42 235.49 35.42 235.49 35.95 233.08 35.95 233.08 37.96 235.9 37.96 235.9 38.49 232.49 38.49"/>
    <polygon points="237.2 38.49 237.2 32.93 240.61 32.93 240.61 33.46 237.79 33.46 237.79 35.42 240.2 35.42 240.2 35.95 237.79 35.95 237.79 37.96 240.61 37.96 240.61 38.49 237.2 38.49"/>
    <path d="M243.97,33.46h-1.47v2.04h1.47c.38.04.75-.15.95-.48.2-.33.2-.75,0-1.08-.2-.33-.57-.52-.95-.48M245.07,38.49l-1.25-2.47h-1.32v2.47h-.59v-5.56h2.11c.43-.04.85.1,1.16.4.31.3.48.71.47,1.15.03.73-.48,1.37-1.2,1.49l1.3,2.52h-.69Z"/>
    <rect x="247.05" y="32.93" width=".59" height="5.56"/>
    <polygon points="252.81 38.49 249.89 34.03 249.89 38.49 249.31 38.49 249.31 32.93 249.86 32.93 252.78 37.37 252.78 32.93 253.37 32.93 253.37 38.49 252.81 38.49"/>
    <path d="M258.22,37.9c-.37.4-.88.63-1.42.64-.54.01-1.06-.2-1.45-.58-.52-.52-.52-1.07-.52-2.25s0-1.73.52-2.25c.37-.38.88-.59,1.41-.58.97-.03,1.8.69,1.92,1.66h-.59c-.09-.5-.44-.91-.92-1.07-.48-.15-1.01-.03-1.36.33-.35.36-.39.73-.39,1.9s.04,1.55.39,1.91c.25.25.59.39.95.39.4,0,.78-.17,1.04-.48.22-.29.33-.64.31-1.01v-.42h-1.35v-.52h1.94v.88c.04.52-.13,1.04-.47,1.44"/>
    <g>
      <path class="cls-6" d="M100.17,44h7.21c3.25,0,5.63.55,7.15,1.65,1.52,1.1,2.28,2.77,2.28,5,0,1.52-.46,2.79-1.39,3.8-.93,1.01-2.29,1.66-4.07,1.95v.11c2.1.31,3.64.97,4.63,1.99.99,1.01,1.48,2.42,1.48,4.23,0,2.42-.8,4.28-2.41,5.59-1.61,1.31-3.88,1.96-6.83,1.96h-8.05v-26.28ZM102,55.7h5.79c2.47,0,4.26-.41,5.38-1.23,1.12-.82,1.68-2.11,1.68-3.86s-.63-3.02-1.9-3.81-3.15-1.19-5.65-1.19h-5.3v10.08ZM102,57.31v11.34h6.18c4.86,0,7.3-1.98,7.3-5.93,0-3.61-2.56-5.41-7.69-5.41h-5.79Z"/>
      <path class="cls-6" d="M124.75,58.82v11.45h-1.83v-26.28h6.25c3.26,0,5.67.6,7.23,1.81s2.34,3.02,2.34,5.44c0,1.76-.46,3.25-1.39,4.46-.93,1.21-2.34,2.08-4.23,2.61l7.14,11.97h-2.19l-6.78-11.45h-6.52ZM124.75,57.24h5.01c2.22,0,3.94-.49,5.16-1.48,1.22-.99,1.83-2.45,1.83-4.38s-.6-3.46-1.8-4.37-3.15-1.37-5.86-1.37h-4.35v11.59Z"/>
      <path class="cls-6" d="M205.52,70.27h-2.25l-10.08-13.88-3.5,3.09v10.78h-1.83v-26.28h1.83v13.66l2.91-2.91,10.3-10.75h2.34l-10.77,11.11,11.05,15.17Z"/>
      <path class="cls-6" d="M230.44,58.82v11.45h-1.83v-26.28h6.25c3.26,0,5.67.6,7.23,1.81s2.34,3.02,2.34,5.44c0,1.76-.46,3.25-1.39,4.46-.93,1.21-2.34,2.08-4.23,2.61l7.14,11.97h-2.19l-6.78-11.45h-6.52ZM230.44,57.24h5.01c2.22,0,3.94-.49,5.16-1.48,1.22-.99,1.83-2.45,1.83-4.38s-.6-3.46-1.8-4.37-3.15-1.37-5.86-1.37h-4.35v11.59Z"/>
      <path class="cls-6" d="M286.08,51.54c0,2.54-.86,4.49-2.59,5.84-1.73,1.35-4.17,2.03-7.33,2.03h-4.06v10.86h-1.83v-26.28h6.43c6.25,0,9.38,2.52,9.38,7.55ZM272.1,57.84h3.61c2.96,0,5.1-.49,6.42-1.46,1.32-.98,1.98-2.56,1.98-4.75,0-2.02-.62-3.53-1.87-4.5-1.25-.98-3.18-1.46-5.79-1.46h-4.35v12.19Z"/>
      <path class="cls-6" d="M257.21,70.39c-3.89,0-6.31-1.06-8.7-3.45l1.4-1.4c2.35,2.35,4.26,3.08,7.42,3.08,4.11,0,6.72-1.98,6.72-5.4,0-1.54-.48-2.83-1.43-3.67-.95-.81-1.65-1.06-3.78-1.39l-3.05-.48c-1.98-.29-3.56-.95-4.66-1.91-1.39-1.17-2.06-2.79-2.06-4.81,0-4.37,3.12-7.16,8.11-7.16,3.23,0,5.29.88,7.52,2.83l-1.28,1.29c-1.62-1.43-3.23-2.42-6.35-2.42-3.78,0-6.06,2.09-6.06,5.4,0,1.5.44,2.64,1.36,3.41.92.77,2.42,1.4,3.89,1.62l2.83.44c2.46.37,3.56.81,4.66,1.73,1.43,1.17,2.28,2.97,2.28,5.07,0,4.41-3.38,7.23-8.81,7.23"/>
      <polygon class="cls-6" points="143.5 70.17 143.5 44.03 159.36 44.03 159.36 45.8 145.49 45.8 145.49 56.11 157.31 56.11 157.31 57.87 145.49 57.87 145.49 68.41 159.36 68.41 159.36 70.17 143.5 70.17"/>
      <polygon class="cls-6" points="208.89 70.17 208.89 44.03 224.75 44.03 224.75 45.8 210.87 45.8 210.87 56.11 222.69 56.11 222.69 57.87 210.87 57.87 210.87 68.41 224.75 68.41 224.75 70.17 208.89 70.17"/>
      <polygon class="cls-6" points="327.63 70.17 327.63 44.03 343.48 44.03 343.48 45.8 329.61 45.8 329.61 56.11 341.43 56.11 341.43 57.87 329.61 57.87 329.61 68.41 343.48 68.41 343.48 70.17 327.63 70.17"/>
      <path class="cls-6" d="M321.61,51.51h1.7c-.54-4.63-4.49-8.07-9.1-7.9-2.52-.03-4.94.96-6.72,2.76-2.47,2.5-2.47,5.1-2.47,10.73s0,8.23,2.47,10.73c1.78,1.79,4.21,2.79,6.72,2.76,4.6.16,8.56-3.27,9.1-7.9h-1.7c-.52,3.62-3.71,6.34-7.33,6.21h-.04s-.04,0-.04,0c-2.05.01-4.05-.8-5.5-2.25-1.89-1.92-1.98-3.69-1.98-9.54s.08-7.63,1.98-9.54c1.45-1.46,3.47-2.29,5.5-2.26h.04s.04,0,.04,0c3.64-.13,6.81,2.59,7.33,6.21Z"/>
      <path class="cls-6" d="M301.85,70.27l-2.07-5.97h-12.9l-2.09,5.97h-2.07l9.6-26.39h2.07l9.55,26.39h-2.09ZM293.35,45.79l-5.75,16.45h11.46l-5.71-16.45Z"/>
      <path class="cls-6" d="M182.39,70.27l-2.07-5.97h-12.9l-2.09,5.97h-2.07l9.6-26.39h2.07l9.55,26.39h-2.09ZM173.89,45.79l-5.75,16.45h11.46l-5.71-16.45Z"/>
    </g>
  </g>
  <g>
    <g class="cls-8">
      <g>
        <polygon class="cls-3" points="44.25 4.95 42.67 26.79 57.13 24.85 57.13 20.3 58.7 17.71 61.33 15.87 63.7 15.87 65.27 18.36 68.69 18.79 74.99 13.17 74.99 10.14 78.67 7.33 74.21 2.35 69.48 -2.4 67.9 -5.22 44.25 4.95"/>
        <polygon class="cls-3" points="40.57 -22.09 36.11 -15.17 36.11 -12.57 40.57 -8.24 40.57 -3.49 40.57 .41 44.25 4.95 67.9 -5.22 65.8 -12.79 60.67 -20.36 57.91 -23.82 50.03 -24.9 44.51 -24.9 40.57 -22.09"/>
        <polygon class="cls-3" points="23.06 3.94 21.22 7.18 24.37 7.18 32.51 10.43 28.84 5.89 28.84 -2.77 25.68 -2.77 23.06 3.94"/>
        <polygon class="cls-3" points="24.37 -7.09 21.22 -7.09 17.8 -7.09 15.96 -1.25 17.54 2.86 21.22 7.18 25.68 -2.77 28.84 -2.77 24.37 -7.09"/>
        <polygon class="cls-3" points="4.92 .26 -5.59 1.78 -12.94 3.83 -12.94 9.13 -7.16 16.27 -1.64 19.08 4.92 19.08 7.81 19.08 14.12 10.43 15.96 6.32 4.92 .26"/>
        <polygon class="cls-3" points="8.87 25.14 6.5 21.67 7.81 19.08 14.12 10.43 15.96 6.32 21.22 7.18 24.37 7.18 32.51 10.43 30.94 32.27 28.84 37.9 26.87 41.57 21.22 39.41 16.75 41.57 14.65 35.08 10.44 34 12.02 29.46 8.87 25.14"/>
        <polygon class="cls-3" points="9.39 38.33 11.49 41.57 16.75 41.57 14.65 35.08 10.44 34 9.39 38.33"/>
        <polygon class="cls-3" points="-3.75 23.95 -1.64 19.08 7.81 19.08 6.5 21.67 12.02 29.46 10.44 34 9.39 38.33 11.49 41.57 9.39 43.88 9.39 49.36 13.07 54.33 6.5 56.71 -1.91 50.66 -10.32 53.25 -12.94 49.14 -14.52 45.03 -10.84 37.79 -14.52 32.27 -18.99 30.54 -17.67 27.08 -9.53 23.95 -3.75 23.95"/>
        <polygon class="cls-3" points="19.51 56.71 13.07 54.33 9.39 49.36 9.39 43.88 11.49 41.57 16.75 41.57 21.22 39.41 26.87 41.57 24.37 51.74 19.51 56.71"/>
        <polygon class="cls-3" points="22.4 69.69 19.51 56.71 24.37 51.74 28.84 53.68 35.4 58.23 38.56 62.77 42.24 65.8 48.94 68.82 47.23 83.75 43.81 83.75 36.19 81.58 26.87 78.99 22.4 69.69"/>
        <polygon class="cls-3" points="47.49 34 48.94 39.41 56.16 42.44 54.85 50.01 51.83 53.04 48.94 59.52 48.94 68.82 42.24 65.8 38.56 62.77 35.4 58.23 28.84 53.68 24.37 51.74 26.87 41.57 28.84 37.9 30.94 32.27 45.39 30.33 47.49 34"/>
        <polygon class="cls-4" points="70.79 -11.49 76.83 -12.57 78.67 -8.24 78.67 -2.84 79.72 4.19 78.67 7.33 69.48 -2.4 67.9 -5.22 70.79 -11.49"/>
        <polygon class="cls-4" points="65.27 18.36 62.12 21.17 60.67 24.85 57.13 24.85 57.13 20.3 58.7 17.71 61.33 15.87 63.7 15.87 65.27 18.36"/>
        <polygon class="cls-4" points="76.31 47.34 69.74 46.26 66.59 44.53 67.9 36.96 76.31 31.12 79.72 32.42 79.72 42.58 76.31 47.34"/>
        <polygon class="cls-4" points="68.69 18.79 73.16 24.85 76.31 31.12 67.9 36.96 60.67 33.93 59.23 28.52 57.13 24.85 60.67 24.85 62.12 21.17 65.27 18.36 68.69 18.79"/>
        <polygon class="cls-4" points="82.61 10.79 78.67 12.52 74.99 13.17 74.99 10.14 78.67 7.33 82.61 10.79"/>
        <polygon class="cls-4" points="90.76 18.36 82.61 10.79 78.67 12.52 74.99 13.17 68.69 18.79 76.31 31.12 79.72 32.42 86.56 36.96 93.13 39.23 96.54 36.96 99.43 39.23 102.85 36.09 107.05 28.52 107.05 24.85 102.85 20.36 97.59 18.47 90.76 18.36"/>
        <polygon class="cls-4" points="83.93 51.23 79.72 51.23 76.31 47.34 79.72 42.58 79.72 32.42 86.56 36.96 93.13 39.23 96.54 36.96 99.43 39.23 103.64 38.4 103.64 47.34 98.64 46.26 96.8 49.07 93.91 51.23 89.97 51.23 83.93 51.23"/>
        <polygon class="cls-4" points="100.48 62.26 93.91 51.23 96.8 49.07 98.64 46.26 103.64 47.34 111.78 51.23 122.29 55.78 122.29 60.1 124.66 65.94 127.28 65.94 115.46 70.91 109.15 70.91 103.64 68.1 100.48 62.26"/>
        <polygon class="cls-4" points="79.72 51.23 79.72 59.67 84.19 59.67 92.07 74.59 97.07 78.27 103.64 73.29 109.15 70.91 103.64 68.1 93.91 51.23 79.72 51.23"/>
        <polygon class="cls-4" points="89.97 78.27 82.61 74.16 88.75 75.46 92.07 74.59 97.07 78.27 95.23 79.42 89.97 78.27"/>
        <polygon class="cls-4" points="81.39 63.35 80.6 67.31 81.91 71.28 82.61 74.16 88.75 75.46 92.07 74.59 84.19 59.67 79.72 59.67 81.39 63.35"/>
        <polygon class="cls-4" points="74.29 61.4 77.18 60.39 79.72 59.67 81.39 63.35 80.6 67.31 82.61 74.16 79.72 71.64 76.92 71.35 74.99 69.26 74.29 65.8 74.29 61.4"/>
        <polygon class="cls-4" points="74.73 70.91 73.16 72.07 73.94 73.73 76.31 73.73 76.92 71.35 74.73 70.91"/>
        <polygon class="cls-4" points="67.29 66.91 70.88 70.91 73.16 72.07 74.73 70.91 76.92 71.35 74.99 69.26 74.29 65.8 74.29 61.4 71.32 59.67 67.9 61.83 66.59 63.35 67.29 66.91"/>
        <polygon class="cls-4" points="60.67 54.04 65.97 56.35 71.32 59.67 74.29 61.4 79.72 59.67 79.72 51.23 76.31 47.34 69.74 46.26 66.59 44.53 63.56 47.56 60.67 54.04"/>
        <polygon class="cls-4" points="66.59 63.35 60.67 63.35 60.67 54.04 65.97 56.35 71.32 59.67 66.59 63.35"/>
        <polygon class="cls-4" points="59.58 84.18 58.97 78.27 60.67 63.35 66.59 63.35 67.29 66.91 70.88 70.91 73.16 72.07 73.94 73.73 70.2 85.41 59.58 84.18"/>
        <polygon class="cls-4" points="76.92 86.85 70.2 85.41 73.94 73.73 76.31 73.73 76.92 71.35 79.72 71.64 82.61 74.16 89.97 78.27 89.27 82.52 76.92 86.85"/>
        <polygon class="cls-4" points="15.96 72.39 6.5 56.71 13.07 54.33 19.51 56.71 22.4 69.69 15.96 72.39"/>
        <polygon class="cls-4" points="18.13 86.7 14.45 77.8 15.96 72.39 22.4 69.69 26.87 78.99 30.94 87.42 22.4 90.89 18.13 86.7"/>
        <polygon class="cls-4" points="42.15 110.06 39.52 118.14 35.32 109.49 32.51 100.55 22.4 90.89 30.94 87.42 26.87 78.99 43.81 83.75 47.23 83.75 47.84 89.66 42.15 110.06"/>
        <polygon class="cls-4" points="18.13 86.7 2.38 80.94 -1.64 78.99 -4.62 74.16 -7.6 68.82 -11.63 66.23 -16.18 64.07 -12.94 54.33 -10.32 53.25 -1.91 50.66 6.5 56.71 15.96 72.39 14.45 77.8 18.13 86.7"/>
        <polyline class="cls-2" points="36.11 -12.57 40.57 -8.24 40.57 .41 44.25 4.95 42.67 26.79 57.13 24.85 59.23 28.52 60.67 33.93 67.9 36.96 66.59 44.53 63.56 47.56 60.67 54.04 60.67 63.35 58.97 78.27 59.58 84.18"/>
        <polyline class="cls-2" points="24.37 -6.55 28.84 -2.22 28.84 6.43 32.51 10.97 30.94 32.81 45.39 30.87 47.49 34.54 48.94 39.95 56.16 42.98 54.85 50.55 51.83 53.58 48.94 60.06 48.94 69.36 47.23 84.29 47.84 90.2"/>
      </g>
    </g>
    <rect class="cls-5" x="1.67" y="-1.67" width="82.87" height="86.21" transform="translate(84.54 -1.67) rotate(90)"/>
  </g>
</svg>